<?xml version="1.0" encoding="UTF-8"?>
<svg width="14px" height="14px" viewBox="0 0 14 14" version="1.1" xmlns="http://www.w3.org/2000/svg" xmlns:xlink="http://www.w3.org/1999/xlink">
    <title>icon-console-select</title>
    <g id="icon-console-select" stroke="none" stroke-width="1" fill="none" fill-rule="evenodd">
        <line x1="12.5851602" y1="12.6703806" x2="7.58516018" y2="7.67038057" id="Line" stroke="#6E6E6E" stroke-width="1.3" stroke-linecap="square"></line>
        <path d="M8.4878468,6.28598217 L11.1667166,11.0699722 C10.2737534,10.9057448 9.38078888,10.823726 8.4878468,10.823726 C7.59490472,10.823726 6.70194017,10.9057448 5.80897699,11.0699722 L8.4878468,6.28598217 Z" id="Rectangle" stroke="#6E6E6E" fill="#6E6E6E" transform="translate(8.487847, 8.531173) rotate(-45.000000) translate(-8.487847, -8.531173) "></path>
        <path d="M5.30091349,12.3803897 L5.30091349,12.3803897 L2.7900103,12.3803897 C2.23772555,12.3803897 1.7900103,11.9326745 1.7900103,11.3803897 L1.7900103,3 C1.7900103,2.44771525 2.23772555,2 2.7900103,2 L11.1704,2 C11.7226848,2 12.1704,2.44771525 12.1704,3 L12.1704,5.20442966 L12.1704,5.20442966" id="Path" stroke="#6E6E6E"></path>
    </g>
</svg>