<?xml version="1.0" encoding="UTF-8"?>
<svg width="95px" height="38px" viewBox="0 0 95 38" version="1.1" xmlns="http://www.w3.org/2000/svg" xmlns:xlink="http://www.w3.org/1999/xlink">
    <title>title-logo</title>
    <g id="title-logo" stroke="none" stroke-width="1" fill="none" fill-rule="evenodd">
        <g id="TRANSMEDIA-RESEARCH" transform="translate(1.596580, 1.062000)" fill="#F4FF00" fill-rule="nonzero">
            <path d="M3.44509087,0.182694213 L3.44509087,1.42240494 L5.70266936,1.42240494 C6.57699166,1.42240494 6.99457843,1.83999171 6.99457843,2.6360165 L6.99457843,9.47399989 L8.46918172,9.47399989 L8.46918172,1.42240494 L12.0317189,1.42240494 L12.0317189,0.182694213 L3.44509087,0.182694213 Z" id="Path"></path>
            <path d="M13.2844792,9.47399989 L14.7590825,9.47399989 L14.7590825,5.51997514 L17.2907023,5.51997514 C18.0475783,5.51997514 18.373818,5.88536357 18.5173634,6.45954538 L19.2220411,9.47399989 L20.8271403,9.47399989 L20.8271403,9.39570237 C20.6574956,9.06946271 20.5009006,8.43003296 20.3182064,7.73840487 L19.88757,6.04195861 C19.7570742,5.54607432 19.352537,5.12848754 18.6609089,5.10238837 C19.4960824,4.85444623 20.3965039,4.04537185 20.3965039,2.72736361 C20.3965039,1.00481817 19.2611899,0.182694213 17.6952395,0.182694213 L13.2844792,0.182694213 L13.2844792,9.47399989 Z M14.7460329,2.8317603 L14.7460329,2.81871071 C14.7590825,1.8530413 15.5551073,1.3702066 16.4033304,1.3702066 L17.2776527,1.3702066 C18.1650246,1.3702066 18.908851,1.76169419 18.908851,2.80566113 C18.908851,3.84962806 18.151975,4.31941317 17.1602064,4.31941317 L16.4033304,4.31941317 C15.4898593,4.31941317 14.7460329,3.91487599 14.7460329,2.8317603 Z" id="Shape"></path>
            <path d="M30.3141897,9.47399989 L26.7908013,0.182694213 L25.0682559,0.182694213 L21.5448675,9.47399989 L23.0064212,9.47399989 L23.9329419,6.99457843 L27.9261154,6.99457843 L28.852636,9.47399989 L30.3141897,9.47399989 Z M24.3766278,5.80706605 L25.1726526,3.64083467 C25.5119419,2.68821485 26.360165,2.66211567 26.6994542,3.64083467 L27.4824294,5.80706605 L24.3766278,5.80706605 Z" id="Shape"></path>
            <path d="M31.6452476,0.260991733 L31.6452476,9.47399989 L33.1329004,9.47399989 L33.1329004,4.25416524 C33.1329004,3.75828095 33.811479,3.54948756 34.1116194,4.0975702 L37.0999748,9.50009907 C37.7263549,9.70889245 38.5223797,9.66974369 39.018264,9.44790072 L39.018264,0.182694213 L37.5306111,0.182694213 L37.5436607,5.40252886 C37.5436607,5.98976026 36.8781318,6.18550406 36.5388426,5.54607432 L33.5765864,0.11744628 C32.9632558,-0.0521983465 32.1541815,-0.0260991733 31.6452476,0.260991733 Z" id="Path"></path>
            <path d="M40.7147103,6.51174373 C40.7147103,8.69102469 42.3850574,9.64364452 44.51214,9.64364452 C46.6000738,9.64364452 48.1268755,8.71712387 48.1268755,6.90323133 C48.1268755,5.44167762 47.2134044,4.6848016 45.5952557,4.26721483 L44.2119995,3.9018264 C43.089735,3.62778508 42.398107,3.28849583 42.398107,2.49247105 C42.398107,1.77474378 43.1027846,1.22666114 44.2641978,1.22666114 C45.6996524,1.22666114 46.3782309,1.78779337 46.3782309,2.85785947 C46.3782309,3.62778508 47.9441813,3.6147355 47.9050325,2.85785947 C47.826735,0.835173544 46.3651813,0 44.3424954,0 C42.1632144,0 40.8843549,1.0700661 40.8843549,2.64906609 C40.8843549,3.96707433 41.8369747,4.71090077 43.0505863,5.03714044 L45.047173,5.57217349 C46.1172391,5.83316522 46.6131234,6.25075199 46.6131234,7.03372719 C46.6131234,7.92109908 45.8040491,8.40393379 44.5382392,8.40393379 C43.154983,8.40393379 42.2806607,7.85585115 42.2676111,6.51174373 L40.7147103,6.51174373 Z" id="Path"></path>
            <path d="M49.5362308,9.47399989 L51.0238837,9.47399989 L51.0238837,4.4890578 C51.0238837,4.01927268 51.5980655,3.86267764 51.8068589,4.46295863 L53.633801,9.47399989 L54.9387597,9.47399989 L56.7657018,4.46295863 C56.9875448,3.82352888 57.548677,3.95402475 57.548677,4.47600821 L57.548677,9.47399989 L59.0363299,9.47399989 L59.0363299,0.182694213 L56.8831481,0.182694213 L54.8213134,6.01585944 C54.6255696,6.61614042 53.9469911,6.61614042 53.7512473,6.01585944 L51.6894126,0.182694213 L49.5362308,0.182694213 L49.5362308,9.47399989 Z" id="Path"></path>
            <path d="M67.5838091,0.182694213 L61.1242638,0.182694213 L61.1242638,9.47399989 L67.5055116,9.47399989 L67.5055116,8.24733875 L62.5988671,8.24733875 L62.5988671,5.18068589 L67.2445199,5.18068589 L67.2445199,4.03232227 L64.021272,4.03232227 C63.1469497,4.03232227 62.5727679,3.65388426 62.5727679,2.71431402 C62.5727679,1.80084295 63.2774456,1.39630577 64.021272,1.39630577 L67.5838091,1.39630577 L67.5838091,0.182694213 Z" id="Path"></path>
            <path d="M69.4107513,9.47399989 L73.2342802,9.47399989 C75.4918586,9.47399989 77.723338,8.09074371 77.723338,4.75004953 C77.723338,1.68339668 75.6615033,0.182694213 73.2342802,0.182694213 L69.4107513,0.182694213 L69.4107513,9.47399989 Z M70.8853546,6.12025613 L70.8853546,3.54948756 C70.8853546,2.12708262 71.6161314,1.40935536 72.6731479,1.40935536 L73.2342802,1.40935536 C75.0090239,1.40935536 76.1834867,2.75346278 76.1834867,4.75004953 C76.1834867,6.95542967 74.8785281,8.24733875 73.2342802,8.24733875 L72.6731479,8.24733875 C71.4986851,8.24733875 70.8853546,7.47741314 70.8853546,6.12025613 Z" id="Shape"></path>
            <polygon id="Path" points="80.7899908 0.182694213 79.3284371 0.182694213 79.3414867 9.47399989 80.8030404 9.47399989"></polygon>
            <path d="M90.9034205,9.47399989 L87.3800321,0.182694213 L85.6574866,0.182694213 L82.1340982,9.47399989 L83.5956519,9.47399989 L84.5221726,6.99457843 L88.5153461,6.99457843 L89.4418667,9.47399989 L90.9034205,9.47399989 Z M84.9658585,5.80706605 L85.7618833,3.64083467 C86.1011726,2.68821485 86.9493957,2.66211567 87.288685,3.64083467 L88.0716602,5.80706605 L84.9658585,5.80706605 Z" id="Shape"></path>
            <path d="M0,21.9021776 L1.47460329,21.9021776 L1.47460329,17.9481529 L4.00622309,17.9481529 C4.76309912,17.9481529 5.08933878,18.3135413 5.23288424,18.8877231 L5.93756192,21.9021776 L7.54266107,21.9021776 L7.54266107,21.8238801 C7.37301644,21.4976404 7.21642141,20.8582107 7.03372719,20.1665826 L6.60309083,18.4701363 C6.47259497,17.9742521 6.06805778,17.5566653 5.37642969,17.5305661 C6.21160323,17.282624 7.11202471,16.4735496 7.11202471,15.1555413 C7.11202471,13.4329959 5.97671068,12.610872 4.41076028,12.610872 L0,12.610872 L0,21.9021776 Z M1.4615537,15.259938 L1.4615537,15.2468885 C1.47460329,14.281219 2.27062807,13.7983843 3.1188512,13.7983843 L3.99317351,13.7983843 C4.8805454,13.7983843 5.62437184,14.1898719 5.62437184,15.2338389 C5.62437184,16.2778058 4.86749581,16.7475909 3.87572723,16.7475909 L3.1188512,16.7475909 C2.20538014,16.7475909 1.4615537,16.3430537 1.4615537,15.259938 Z" id="Shape"></path>
            <path d="M15.4768097,12.610872 L9.01726436,12.610872 L9.01726436,21.9021776 L15.3985122,21.9021776 L15.3985122,20.6755165 L10.4918676,20.6755165 L10.4918676,17.6088636 L15.1375205,17.6088636 L15.1375205,16.4605 L11.9142726,16.4605 C11.0399503,16.4605 10.4657685,16.082062 10.4657685,15.1424918 C10.4657685,14.2290207 11.1704462,13.8244835 11.9142726,13.8244835 L15.4768097,13.8244835 L15.4768097,12.610872 Z" id="Path"></path>
            <path d="M16.9122643,18.9399215 C16.9122643,21.1192024 18.5826114,22.0718223 20.709694,22.0718223 C22.7976278,22.0718223 24.3244295,21.1453016 24.3244295,19.3314091 C24.3244295,17.8698554 23.4109584,17.1129793 21.7928097,16.6953926 L20.4095535,16.3300041 C19.287289,16.0559628 18.5956609,15.7166736 18.5956609,14.9206488 C18.5956609,14.2029215 19.3003386,13.6548389 20.4617518,13.6548389 C21.8972064,13.6548389 22.5757849,14.2159711 22.5757849,15.2860372 C22.5757849,16.0559628 24.1417353,16.0429132 24.1025865,15.2860372 C24.024289,13.2633513 22.5627353,12.4281777 20.5400494,12.4281777 C18.3607684,12.4281777 17.0819089,13.4982438 17.0819089,15.0772438 C17.0819089,16.3952521 18.0345287,17.1390785 19.2481403,17.4653182 L21.244727,18.0003512 C22.3147931,18.261343 22.8106774,18.6789297 22.8106774,19.4619049 C22.8106774,20.3492768 22.0016031,20.8321115 20.7357932,20.8321115 C19.352537,20.8321115 18.4782147,20.2840289 18.4651651,18.9399215 L16.9122643,18.9399215 Z" id="Path"></path>
            <path d="M32.1933302,12.610872 L25.7337848,12.610872 L25.7337848,21.9021776 L32.1150327,21.9021776 L32.1150327,20.6755165 L27.2083881,20.6755165 L27.2083881,17.6088636 L31.854041,17.6088636 L31.854041,16.4605 L28.6307931,16.4605 C27.7564708,16.4605 27.1822889,16.082062 27.1822889,15.1424918 C27.1822889,14.2290207 27.8869666,13.8244835 28.6307931,13.8244835 L32.1933302,13.8244835 L32.1933302,12.610872 Z" id="Path"></path>
            <path d="M42.0327185,21.9021776 L38.5093301,12.610872 L36.7867847,12.610872 L33.2633963,21.9021776 L34.72495,21.9021776 L35.6514707,19.4227562 L39.6446442,19.4227562 L40.5711648,21.9021776 L42.0327185,21.9021776 Z M36.0951566,18.2352438 L36.8911814,16.0690124 C37.2304706,15.1163926 38.0786938,15.0902934 38.417983,16.0690124 L39.2009582,18.2352438 L36.0951566,18.2352438 Z" id="Shape"></path>
            <path d="M43.3637764,21.9021776 L44.8383797,21.9021776 L44.8383797,17.9481529 L47.3699995,17.9481529 C48.1268755,17.9481529 48.4531151,18.3135413 48.5966606,18.8877231 L49.3013383,21.9021776 L50.9064374,21.9021776 L50.9064374,21.8238801 C50.7367928,21.4976404 50.5801978,20.8582107 50.3975036,20.1665826 L49.9668672,18.4701363 C49.8363713,17.9742521 49.4318341,17.5566653 48.7402061,17.5305661 C49.5753796,17.282624 50.4758011,16.4735496 50.4758011,15.1555413 C50.4758011,13.4329959 49.340487,12.610872 47.7745366,12.610872 L43.3637764,12.610872 L43.3637764,21.9021776 Z M44.8253301,15.259938 L44.8253301,15.2468885 C44.8383797,14.281219 45.6344044,13.7983843 46.4826276,13.7983843 L47.3569499,13.7983843 C48.2443218,13.7983843 48.9881482,14.1898719 48.9881482,15.2338389 C48.9881482,16.2778058 48.2312722,16.7475909 47.2395036,16.7475909 L46.4826276,16.7475909 C45.5691565,16.7475909 44.8253301,16.3430537 44.8253301,15.259938 Z" id="Shape"></path>
            <path d="M58.6187431,19.0965165 C58.4490985,20.1013347 57.6008754,20.8060124 56.3350655,20.8060124 C54.6516688,20.8060124 53.4250077,19.2922603 53.4250077,17.217376 C53.4250077,15.1946901 54.6255696,13.7200868 56.3089663,13.7200868 C57.6791729,13.7200868 58.4490985,14.5422108 58.592644,15.7297232 C58.6970407,16.4083017 60.106396,16.4083017 60.0411481,15.6122769 C59.9367514,13.7331364 58.3316522,12.4803761 56.2698175,12.4803761 C53.7381977,12.4803761 51.898206,14.3595166 51.898206,17.2043264 C51.898206,20.1143843 53.7381977,22.0587727 56.256768,22.0587727 C58.3055531,22.0587727 59.7801563,20.9234586 60.0933464,19.0965165 L58.6187431,19.0965165 Z" id="Path"></path>
            <path d="M61.7636935,12.610872 L61.7636935,21.9021776 L63.2382968,21.9021776 L63.2382968,19.3183595 C63.2382968,18.2482934 63.7602803,17.7393595 64.8172968,17.7393595 L67.5316108,17.7393595 L67.5316108,21.9021776 L69.0062141,21.9021776 L69.0062141,12.610872 L67.5316108,12.610872 L67.5316108,14.9075992 C67.5316108,15.9776653 67.0357265,16.4996488 65.9395612,16.4996488 L63.2382968,16.4996488 L63.2382968,12.610872 L61.7636935,12.610872 Z" id="Path"></path>
            <polygon id="Path" points="14.2631982 25.0390497 12.8016445 25.0390497 12.8146941 34.3303554 14.2762478 34.3303554"></polygon>
            <path d="M16.3641816,25.1173472 L16.3641816,34.3303554 L17.8518345,34.3303554 L17.8518345,29.1105207 C17.8518345,28.6146364 18.530413,28.405843 18.8305535,28.9539257 L21.8189088,34.3564545 C22.445289,34.5652479 23.2413138,34.5260992 23.7371981,34.3042562 L23.7371981,25.0390497 L22.2495452,25.0390497 L22.2625948,30.2588843 C22.2625948,30.8461157 21.5970659,31.0418595 21.2577766,30.4024298 L18.2955205,24.9738018 C17.6821899,24.8041571 16.8731155,24.8302563 16.3641816,25.1173472 Z" id="Path"></path>
            <path d="M25.4336443,31.3680992 C25.4336443,33.5473802 27.1039914,34.5 29.231074,34.5 C31.3190079,34.5 32.8458095,33.5734793 32.8458095,31.7595868 C32.8458095,30.2980331 31.9323385,29.5411571 30.3141897,29.1235703 L28.9309336,28.7581819 C27.8086691,28.4841406 27.117041,28.1448513 27.117041,27.3488265 C27.117041,26.6310993 27.8217187,26.0830166 28.9831319,26.0830166 C30.4185864,26.0830166 31.0971649,26.6441488 31.0971649,27.714215 C31.0971649,28.4841406 32.6631153,28.471091 32.6239666,27.714215 C32.5456691,25.691529 31.0841153,24.8563555 29.0614294,24.8563555 C26.8821485,24.8563555 25.603289,25.9264216 25.603289,27.5054216 C25.603289,28.8234298 26.5559088,29.5672563 27.7695203,29.8934959 L29.7661071,30.428529 C30.8361732,30.6895207 31.3320575,31.1071075 31.3320575,31.8900827 C31.3320575,32.7774546 30.5229831,33.2602893 29.2571732,33.2602893 C27.873917,33.2602893 26.9995947,32.7122066 26.9865451,31.3680992 L25.4336443,31.3680992 Z" id="Path"></path>
            <path d="M33.4330409,25.0390497 L33.4330409,26.2787604 L35.6906194,26.2787604 C36.5649417,26.2787604 36.9825285,26.6963472 36.9825285,27.492372 L36.9825285,34.3303554 L38.4571318,34.3303554 L38.4571318,26.2787604 L42.0196689,26.2787604 L42.0196689,25.0390497 L33.4330409,25.0390497 Z" id="Path"></path>
            <polygon id="Path" points="44.733983 25.0390497 43.2724293 25.0390497 43.2854788 34.3303554 44.7470325 34.3303554"></polygon>
            <path d="M46.0128425,25.0390497 L46.0128425,26.2787604 L48.2704209,26.2787604 C49.1447432,26.2787604 49.56233,26.6963472 49.56233,27.492372 L49.56233,34.3303554 L51.0369333,34.3303554 L51.0369333,26.2787604 L54.5994705,26.2787604 L54.5994705,25.0390497 L46.0128425,25.0390497 Z" id="Path"></path>
            <path d="M62.6902142,30.7678182 L62.6902142,25.0390497 L61.2025613,25.0390497 L61.2025613,30.9505124 C61.2025613,32.4381653 60.550082,33.2863884 59.1668258,33.2863884 C57.7835696,33.2863884 57.1310903,32.4381653 57.1310903,30.9505124 L57.1310903,25.0390497 L55.6434374,25.0390497 L55.6434374,30.7678182 C55.6434374,32.699157 56.256768,34.4739008 59.1668258,34.4739008 C62.0768836,34.4739008 62.6902142,32.699157 62.6902142,30.7678182 Z" id="Path"></path>
            <path d="M63.7472307,25.0390497 L63.7472307,26.2787604 L66.0048092,26.2787604 C66.8791315,26.2787604 67.2967182,26.6963472 67.2967182,27.492372 L67.2967182,34.3303554 L68.7713215,34.3303554 L68.7713215,26.2787604 L72.3338587,26.2787604 L72.3338587,25.0390497 L63.7472307,25.0390497 Z" id="Path"></path>
            <path d="M80.0461644,25.0390497 L73.586619,25.0390497 L73.586619,34.3303554 L79.9678669,34.3303554 L79.9678669,33.1036942 L75.0612223,33.1036942 L75.0612223,30.0370414 L79.7068751,30.0370414 L79.7068751,28.8886777 L76.4836272,28.8886777 C75.6093049,28.8886777 75.0351231,28.5102397 75.0351231,27.5706695 C75.0351231,26.6571984 75.7398008,26.2526613 76.4836272,26.2526613 L80.0461644,26.2526613 L80.0461644,25.0390497 Z" id="Path"></path>
        </g>
    </g>
</svg>