<?xml version="1.0" encoding="UTF-8"?>
<svg width="70px" height="28px" viewBox="0 0 70 28" version="1.1" xmlns="http://www.w3.org/2000/svg" xmlns:xlink="http://www.w3.org/1999/xlink">
    <title>title-logo</title>
    <g id="title-logo" stroke="none" stroke-width="1" fill="none" fill-rule="evenodd">
        <g id="TMRI-Copy-5" transform="translate(1.000000, 1.000000)" fill="#F4FF00" fill-rule="nonzero">
            <path d="M0,1.37782135 C5.55915771e-17,1.83176103 0.367990816,2.19975185 0.821930492,2.19975185 L1.25929085,2.19975185 L1.25929085,2.19975185 C6.32686395,2.19975185 10.4349436,6.30783153 10.4349436,11.3754046 L10.4349436,25.1423334 C10.4349436,25.6160096 10.8189341,26 11.2926102,26 C11.7662864,26 12.1502768,25.6160096 12.1502768,25.1423334 L12.1502768,6.52382095 C12.1502768,4.13570353 14.0862285,2.19975185 16.4743459,2.19975185 L19.9764846,2.19975185 C20.4304242,2.19975185 20.7984151,1.83176103 20.7984151,1.37782135 C20.7984151,0.923881677 20.4304242,0.555890862 19.9764846,0.555890862 L0.821930492,0.555890862 C0.367990816,0.555890862 -5.55915771e-17,0.923881677 0,1.37782135 Z" id="Path"></path>
            <path d="M23.7823801,26 C24.2560563,26 24.6400467,25.6160096 24.6400467,25.1423334 L24.6400467,14.5644453 C24.6400467,13.4058052 25.5793101,12.4665419 26.7379502,12.4665419 C27.609301,12.4665419 28.3899425,13.0051594 28.6992393,13.8197684 L33.1273039,25.4821606 C33.2456625,25.7938871 33.5443908,26 33.8778307,26 C34.2038426,26 34.4884963,25.7792826 34.5696866,25.4635424 L37.2516871,15.0335406 C37.4366843,14.3141069 38.1698705,13.8808605 38.8893042,14.0658578 C39.4837907,14.2187257 39.899365,14.7546814 39.899365,15.3685078 L39.899365,25.1423334 C39.899365,25.6160096 40.2833554,26 40.7570316,26 C41.2307077,26 41.6146982,25.6160096 41.6146982,25.1423334 C41.6146982,17.9319283 41.6146982,10.7215232 41.6146982,3.51111803 C41.6146982,3.51111803 41.6146982,3.51111803 41.6146982,3.51111803 C41.6146982,2.67046995 40.9332182,1.98899003 40.0925702,1.98899003 C39.4570042,1.98899003 38.8883414,2.3838865 38.6662554,2.97938789 L38.4763737,3.48872713 C38.147501,4.37089646 37.8775112,5.2739107 37.6681824,6.19182218 L35.921242,13.8521985 C35.5817422,15.3409134 34.0996814,16.2725363 32.6109665,15.9330365 C31.7017169,15.7256832 30.9582755,15.0739135 30.6337347,14.1996118 L26.4318731,2.87994156 C26.351487,2.66338401 26.2700294,2.44722569 26.1875033,2.23147455 L25.8226222,1.27755162 C25.5302359,0.513154421 24.6735435,0.13051404 23.9091463,0.422900409 C23.7879419,0.469261805 23.6733523,0.531343134 23.5683039,0.607531815 C23.1392436,0.918838908 22.9247135,1.33142038 22.9247135,1.84527622 C22.9247135,9.61096194 22.9247135,17.3766477 22.9247135,25.1423334 C22.9247135,25.6160096 23.3087039,26 23.7823801,26 Z" id="Path"></path>
            <path d="M45.9566353,26 C46.4303115,26 46.8143019,25.6160096 46.8143019,25.1423334 L46.8143019,20.2107504 C46.8143019,17.0134362 49.4062372,14.4215009 52.6035515,14.4215009 L52.740301,14.4215009 C56.1859008,14.4215009 59.1592425,16.8379441 59.863753,20.2107504 L60.8501504,24.9330755 C60.9799875,25.5546638 61.5279568,26 62.1629605,26 C62.6223946,26 62.9948395,25.6275551 62.9948395,25.168121 C62.9948395,25.0951388 62.9852354,25.022474 62.9663034,24.9519902 C62.6118767,23.634611 62.3024036,22.3996468 62.0378841,21.2470976 L60.8228564,16.0653619 C60.5846157,15.0171027 59.5482685,14.1832602 57.713815,13.5638343 L57.713815,13.5638343 C60.7632962,12.0152696 62.2880368,9.85919107 62.2880368,7.09559869 C62.2880368,2.59284904 59.2862037,0.555890862 54.8549263,0.555890862 L52.0989687,0.555890862 C48.2329755,0.555890862 45.0989687,3.68989761 45.0989687,7.55589086 L45.0989687,25.1423334 C45.0989687,25.6160096 45.4829591,26 45.9566353,26 Z M46.8143019,7.47082783 C46.8143019,4.55969295 49.174243,2.19975185 52.0853779,2.19975185 L55.1229471,2.19975185 C58.034082,2.19975185 60.3940231,4.55969295 60.3940231,7.47082783 C60.3940231,10.3819627 58.034082,12.7419038 55.1229471,12.7419038 L52.0853779,12.7419038 C49.174243,12.7419038 46.8143019,10.3819627 46.8143019,7.47082783 Z" id="Shape"></path>
            <path d="M66.6835782,0.555890862 C66.2204212,0.555890862 65.8449583,0.931353772 65.8449583,1.39451074 C65.8449583,1.39490336 65.8449586,1.39529597 65.8449591,1.39568858 L65.8783362,25.1602023 C65.8789879,25.6242004 66.2553157,26 66.7193143,26 C67.1824712,26 67.5579342,25.6245371 67.5579342,25.1613801 C67.5579342,25.1609875 67.5579339,25.1605949 67.5579333,25.1602023 L67.5245562,1.39568858 C67.5239045,0.931690434 67.1475768,0.555890862 66.6835782,0.555890862 Z" id="Path"></path>
        </g>
    </g>
</svg>