<?xml version="1.0" encoding="UTF-8"?>
<svg width="117px" height="38px" viewBox="0 0 117 38" version="1.1" xmlns="http://www.w3.org/2000/svg" xmlns:xlink="http://www.w3.org/1999/xlink">
    <title>title-summerschool</title>
    <g id="title-summerschool" stroke="none" stroke-width="1" fill="none" fill-rule="evenodd">
        <g id="Summer-School-of-Bit" transform="translate(0.901000, 1.062000)" fill="#F4FF00" fill-rule="nonzero">
            <path d="M0,6.487 C0,8.658 1.664,9.607 3.783,9.607 C5.863,9.607 7.384,8.684 7.384,6.877 C7.384,5.421 6.474,4.667 4.862,4.251 L3.484,3.887 C2.366,3.614 1.677,3.276 1.677,2.483 C1.677,1.768 2.379,1.222 3.536,1.222 C4.966,1.222 5.642,1.781 5.642,2.847 C5.642,3.614 7.202,3.601 7.163,2.847 C7.085,0.832 5.629,0 3.614,0 C1.443,0 0.169,1.066 0.169,2.639 C0.169,3.952 1.118,4.693 2.327,5.018 L4.316,5.551 C5.382,5.811 5.876,6.227 5.876,7.007 C5.876,7.891 5.07,8.372 3.809,8.372 C2.431,8.372 1.56,7.826 1.547,6.487 L0,6.487 Z" id="Path"></path>
            <path d="M14.274,9.438 L14.274,2.938 L12.857,2.938 L12.857,6.019 C12.844,7.514 11.973,8.411 11.011,8.411 C10.322,8.411 9.841,7.956 9.828,6.916 L9.789,2.938 L8.359,2.938 L8.398,7.293 C8.411,8.827 9.191,9.607 10.491,9.607 C11.401,9.607 11.908,9.191 12.22,8.866 C12.389,8.697 12.584,8.658 12.675,8.801 C12.779,8.931 12.857,9.126 12.857,9.438 L14.274,9.438 Z" id="Path"></path>
            <path d="M24.635,5.46 L24.635,9.438 L26.065,9.438 L26.065,5.148 C26.065,3.549 25.207,2.769 23.803,2.769 C23.296,2.769 22.88,2.925 22.412,3.25 C22.152,3.432 21.931,3.601 21.593,3.601 C21.45,3.601 21.294,3.549 21.099,3.419 C20.735,2.99 20.202,2.769 19.513,2.769 C18.603,2.769 18.096,3.185 17.784,3.51 C17.615,3.679 17.42,3.718 17.329,3.575 C17.225,3.445 17.147,3.25 17.147,2.938 L15.73,2.938 L15.73,9.438 L17.147,9.438 L17.147,6.357 C17.16,4.862 18.031,3.965 18.993,3.965 C19.682,3.965 20.163,4.42 20.176,5.46 L20.215,9.438 L21.645,9.438 L21.619,5.993 C21.736,4.758 22.36,3.965 23.374,3.965 C24.128,3.991 24.635,4.42 24.635,5.46 Z" id="Path"></path>
            <path d="M36.322,5.46 L36.322,9.438 L37.752,9.438 L37.752,5.148 C37.752,3.549 36.894,2.769 35.49,2.769 C34.983,2.769 34.567,2.925 34.099,3.25 C33.839,3.432 33.618,3.601 33.28,3.601 C33.137,3.601 32.981,3.549 32.786,3.419 C32.422,2.99 31.889,2.769 31.2,2.769 C30.29,2.769 29.783,3.185 29.471,3.51 C29.302,3.679 29.107,3.718 29.016,3.575 C28.912,3.445 28.834,3.25 28.834,2.938 L27.417,2.938 L27.417,9.438 L28.834,9.438 L28.834,6.357 C28.847,4.862 29.718,3.965 30.68,3.965 C31.369,3.965 31.85,4.42 31.863,5.46 L31.902,9.438 L33.332,9.438 L33.306,5.993 C33.423,4.758 34.047,3.965 35.061,3.965 C35.815,3.991 36.322,4.42 36.322,5.46 Z" id="Path"></path>
            <path d="M42.146,9.62 C43.602,9.62 44.772,8.84 45.019,7.319 L43.537,7.319 C43.381,8.151 42.796,8.515 42.146,8.515 C41.028,8.515 40.43,7.54 40.404,6.37 L45.084,6.37 C45.084,6.162 45.097,6.071 45.084,5.863 C45.019,3.952 43.823,2.756 42.107,2.756 C40.157,2.756 38.909,4.147 38.909,6.136 C38.909,8.19 40.092,9.62 42.146,9.62 Z M41.054,4.199 C41.288,3.965 41.613,3.809 42.068,3.809 C42.939,3.809 43.537,4.446 43.576,5.525 L41.392,5.525 C40.339,5.525 40.651,4.55 41.054,4.199 Z" id="Shape"></path>
            <path d="M46.384,9.425 L47.801,9.425 L47.801,6.331 C47.801,5.122 48.412,4.16 49.439,4.017 C49.621,4.004 49.777,4.004 49.946,4.03 L49.946,2.769 C49.699,2.743 49.478,2.743 49.257,2.795 C48.724,2.899 48.412,3.237 48.282,3.38 C48.126,3.562 47.801,3.536 47.801,3.263 L47.801,2.938 L46.384,2.938 L46.384,9.425 Z" id="Path"></path>
            <path d="M55.159,6.487 C55.159,8.658 56.823,9.607 58.942,9.607 C61.022,9.607 62.543,8.684 62.543,6.877 C62.543,5.421 61.633,4.667 60.021,4.251 L58.643,3.887 C57.525,3.614 56.836,3.276 56.836,2.483 C56.836,1.768 57.538,1.222 58.695,1.222 C60.125,1.222 60.801,1.781 60.801,2.847 C60.801,3.614 62.361,3.601 62.322,2.847 C62.244,0.832 60.788,0 58.773,0 C56.602,0 55.328,1.066 55.328,2.639 C55.328,3.952 56.277,4.693 57.486,5.018 L59.475,5.551 C60.541,5.811 61.035,6.227 61.035,7.007 C61.035,7.891 60.229,8.372 58.968,8.372 C57.59,8.372 56.719,7.826 56.706,6.487 L55.159,6.487 Z" id="Path"></path>
            <path d="M66.612,9.62 C68.055,9.62 69.199,8.853 69.472,7.319 L68.016,7.319 C67.86,8.151 67.262,8.515 66.612,8.515 C65.533,8.515 64.857,7.566 64.857,6.214 C64.857,4.68 65.676,3.861 66.638,3.861 C67.366,3.861 67.899,4.225 68.003,5.07 C68.081,5.824 69.433,5.863 69.42,5.057 C69.368,3.614 68.133,2.756 66.612,2.756 C64.714,2.756 63.375,4.16 63.375,6.214 C63.375,8.203 64.61,9.62 66.612,9.62 Z" id="Path"></path>
            <path d="M74.308,2.769 C73.398,2.769 72.891,3.185 72.579,3.51 C72.41,3.679 72.215,3.718 72.124,3.575 C72.02,3.445 71.942,3.25 71.942,2.938 L71.942,0.182 L70.525,0.182 L70.525,9.438 L71.942,9.438 L71.942,6.357 C71.955,4.862 72.826,3.965 73.788,3.965 C74.477,3.965 74.958,4.42 74.971,5.46 L75.01,9.438 L76.44,9.438 L76.401,5.083 C76.388,3.549 75.608,2.769 74.308,2.769 Z" id="Path"></path>
            <path d="M80.626,9.633 C82.524,9.633 83.733,8.333 83.733,6.214 C83.733,4.16 82.524,2.756 80.626,2.756 C78.741,2.756 77.519,4.16 77.519,6.214 C77.519,8.333 78.741,9.633 80.626,9.633 Z M79.001,6.214 C79.001,4.68 79.69,3.861 80.626,3.861 C81.575,3.861 82.251,4.68 82.251,6.214 C82.251,7.735 81.575,8.528 80.626,8.528 C79.69,8.528 79.001,7.735 79.001,6.214 Z" id="Shape"></path>
            <path d="M87.776,9.633 C89.674,9.633 90.883,8.333 90.883,6.214 C90.883,4.16 89.674,2.756 87.776,2.756 C85.891,2.756 84.669,4.16 84.669,6.214 C84.669,8.333 85.891,9.633 87.776,9.633 Z M86.151,6.214 C86.151,4.68 86.84,3.861 87.776,3.861 C88.725,3.861 89.401,4.68 89.401,6.214 C89.401,7.735 88.725,8.528 87.776,8.528 C86.84,8.528 86.151,7.735 86.151,6.214 Z" id="Shape"></path>
            <polygon id="Path" points="92.053 0.182 92.053 9.438 93.47 9.438 93.47 0.182"></polygon>
            <path d="M11.427,21.633 C13.325,21.633 14.534,20.333 14.534,18.214 C14.534,16.16 13.325,14.756 11.427,14.756 C9.542,14.756 8.32,16.16 8.32,18.214 C8.32,20.333 9.542,21.633 11.427,21.633 Z M9.802,18.214 C9.802,16.68 10.491,15.861 11.427,15.861 C12.376,15.861 13.052,16.68 13.052,18.214 C13.052,19.735 12.376,20.528 11.427,20.528 C10.491,20.528 9.802,19.735 9.802,18.214 Z" id="Shape"></path>
            <path d="M16.159,16.966 L16.159,21.438 L17.576,21.438 L17.576,16.966 C17.576,16.407 17.862,16.03 18.434,16.03 L19.071,16.03 L19.071,14.938 L17.576,14.938 L17.576,13.963 C17.576,13.079 18.213,12.715 19.162,13.105 L19.162,12.065 C18.863,11.87 18.46,11.779 18.07,11.779 C16.913,11.779 16.159,12.624 16.159,13.755 L16.159,14.028 C16.159,14.6 15.847,14.938 15.262,14.938 L15.223,14.938 L15.223,16.017 L15.275,16.017 C15.847,16.017 16.159,16.407 16.159,16.966 Z" id="Path"></path>
            <path d="M24.739,21.438 L29.25,21.438 C30.641,21.438 31.876,20.814 31.876,18.864 C31.876,17.629 31.2,16.862 30.147,16.68 C30.966,16.472 31.616,15.692 31.616,14.587 C31.616,13.027 30.563,12.182 29.081,12.182 L24.739,12.182 L24.739,21.438 Z M26.234,14.808 L26.234,14.782 C26.234,13.82 26.897,13.326 27.716,13.326 L28.548,13.326 C29.484,13.326 30.108,13.885 30.108,14.782 C30.108,15.796 29.484,16.212 28.639,16.212 L27.716,16.212 C26.975,16.212 26.234,15.744 26.234,14.808 Z M26.299,18.864 L26.299,18.851 C26.299,17.811 27.014,17.278 27.872,17.278 L28.613,17.278 C29.614,17.278 30.29,17.876 30.29,18.838 C30.29,19.943 29.627,20.372 28.717,20.372 L27.872,20.372 C27.079,20.372 26.299,19.878 26.299,18.864 Z" id="Shape"></path>
            <path d="M33.202,14.938 L33.202,21.438 L34.619,21.438 L34.619,14.938 L33.202,14.938 Z M33.098,12.949 C33.098,13.391 33.488,13.781 33.917,13.781 C34.372,13.781 34.736,13.391 34.736,12.949 C34.736,12.507 34.372,12.13 33.917,12.13 C33.488,12.13 33.098,12.507 33.098,12.949 Z" id="Shape"></path>
            <path d="M39.611,21.347 L39.611,20.268 C38.623,20.697 38.012,20.294 38.012,19.293 L38.012,16.03 L39.364,16.03 L39.364,14.938 L39.078,14.938 C38.402,14.938 38.012,14.561 38.012,13.885 L38.012,12.065 L37.96,12.065 L36.595,13.209 L36.595,14.145 C36.595,14.652 36.283,14.938 35.789,14.938 L35.724,14.938 L35.724,16.03 L35.763,16.03 C36.27,16.03 36.595,16.316 36.595,16.862 L36.595,19.644 C36.595,20.164 36.777,20.775 37.258,21.204 C37.83,21.698 38.87,21.75 39.611,21.347 Z" id="Path"></path>
            <path d="M43.355,21.62 C45.266,21.62 46.176,20.866 46.176,19.631 C46.176,18.578 45.526,18.032 44.369,17.785 L43.16,17.525 C42.367,17.369 41.886,17.148 41.886,16.576 C41.886,16.056 42.302,15.718 43.173,15.718 C44.187,15.718 44.551,16.121 44.59,16.784 C44.603,17.187 45.929,17.148 45.916,16.576 C45.799,15.419 44.837,14.756 43.121,14.756 C41.444,14.756 40.508,15.601 40.508,16.719 C40.508,17.746 41.288,18.24 42.198,18.435 L43.615,18.747 C44.369,18.903 44.733,19.176 44.733,19.696 C44.733,20.229 44.317,20.593 43.316,20.593 C42.146,20.593 41.691,20.099 41.665,19.28 C41.652,18.864 40.209,19.007 40.235,19.553 C40.326,20.827 41.197,21.62 43.355,21.62 Z" id="Path"></path>
            <path d="M53.391,21.594 C54.236,21.594 54.834,21.191 55.263,20.593 C55.432,20.476 55.614,20.411 55.705,20.476 C55.783,20.515 55.822,20.593 55.861,20.684 C55.861,20.905 55.861,21.204 55.926,21.438 L57.278,21.438 L57.278,21.373 C57.174,21.061 57.135,20.567 57.135,19.826 L57.135,17.161 C57.135,15.744 56.173,14.756 54.288,14.756 C52.611,14.756 51.493,15.523 51.454,16.953 L52.819,17.07 C52.871,16.082 53.469,15.744 54.249,15.744 C55.172,15.744 55.705,16.238 55.705,16.927 L55.705,17.187 L53.365,17.694 C52.143,17.954 51.324,18.669 51.324,19.813 C51.324,20.996 52.273,21.594 53.391,21.594 Z M52.806,19.735 C52.806,19.15 53.157,18.747 53.924,18.552 L55.705,18.058 L55.705,18.292 C55.705,19.631 54.873,20.671 53.807,20.671 C53.261,20.671 52.806,20.346 52.806,19.735 Z" id="Shape"></path>
            <path d="M58.63,14.938 L58.63,21.438 L60.047,21.438 L60.047,18.357 C60.06,16.862 60.931,15.965 61.893,15.965 C62.582,15.965 63.063,16.42 63.076,17.46 L63.115,21.438 L64.545,21.438 L64.506,17.083 C64.493,15.549 63.713,14.769 62.413,14.769 C61.503,14.769 60.996,15.185 60.684,15.51 C60.515,15.679 60.32,15.718 60.229,15.575 C60.125,15.445 60.047,15.25 60.047,14.938 L58.63,14.938 Z" id="Path"></path>
            <path d="M68.38,21.659 C69.004,21.659 69.576,21.425 69.966,21.074 C70.161,20.905 70.369,20.97 70.434,21.165 L70.473,21.438 L71.76,21.438 L71.76,12.182 L70.343,12.182 L70.343,14.951 C70.343,15.341 70.018,15.393 69.797,15.237 C69.459,14.99 69.056,14.769 68.406,14.769 C66.872,14.769 65.624,16.043 65.624,18.214 C65.624,20.45 66.872,21.659 68.38,21.659 Z M67.067,18.227 C67.067,16.628 67.847,15.861 68.718,15.861 C69.784,15.861 70.382,16.706 70.382,18.227 C70.382,19.761 69.784,20.567 68.718,20.567 C67.782,20.567 67.067,19.826 67.067,18.227 Z" id="Shape"></path>
            <path d="M85.735,21.438 L82.225,12.182 L80.509,12.182 L76.999,21.438 L78.455,21.438 L79.378,18.968 L83.356,18.968 L84.279,21.438 L85.735,21.438 Z M79.82,17.785 L80.613,15.627 C80.951,14.678 81.796,14.652 82.134,15.627 L82.914,17.785 L79.82,17.785 Z" id="Shape"></path>
            <path d="M90.142,21.347 L90.142,20.268 C89.154,20.697 88.543,20.294 88.543,19.293 L88.543,16.03 L89.895,16.03 L89.895,14.938 L89.609,14.938 C88.933,14.938 88.543,14.561 88.543,13.885 L88.543,12.065 L88.491,12.065 L87.126,13.209 L87.126,14.145 C87.126,14.652 86.814,14.938 86.32,14.938 L86.255,14.938 L86.255,16.03 L86.294,16.03 C86.801,16.03 87.126,16.316 87.126,16.862 L87.126,19.644 C87.126,20.164 87.308,20.775 87.789,21.204 C88.361,21.698 89.401,21.75 90.142,21.347 Z" id="Path"></path>
            <path d="M93.99,21.633 C95.888,21.633 97.097,20.333 97.097,18.214 C97.097,16.16 95.888,14.756 93.99,14.756 C92.105,14.756 90.883,16.16 90.883,18.214 C90.883,20.333 92.105,21.633 93.99,21.633 Z M92.365,18.214 C92.365,16.68 93.054,15.861 93.99,15.861 C94.939,15.861 95.615,16.68 95.615,18.214 C95.615,19.735 94.939,20.528 93.99,20.528 C93.054,20.528 92.365,19.735 92.365,18.214 Z" id="Shape"></path>
            <path d="M107.198,17.46 L107.198,21.438 L108.628,21.438 L108.628,17.148 C108.628,15.549 107.77,14.769 106.366,14.769 C105.859,14.769 105.443,14.925 104.975,15.25 C104.715,15.432 104.494,15.601 104.156,15.601 C104.013,15.601 103.857,15.549 103.662,15.419 C103.298,14.99 102.765,14.769 102.076,14.769 C101.166,14.769 100.659,15.185 100.347,15.51 C100.178,15.679 99.983,15.718 99.892,15.575 C99.788,15.445 99.71,15.25 99.71,14.938 L98.293,14.938 L98.293,21.438 L99.71,21.438 L99.71,18.357 C99.723,16.862 100.594,15.965 101.556,15.965 C102.245,15.965 102.726,16.42 102.739,17.46 L102.778,21.438 L104.208,21.438 L104.182,17.993 C104.299,16.758 104.923,15.965 105.937,15.965 C106.691,15.991 107.198,16.42 107.198,17.46 Z" id="Path"></path>
            <path d="M112.723,21.62 C114.634,21.62 115.544,20.866 115.544,19.631 C115.544,18.578 114.894,18.032 113.737,17.785 L112.528,17.525 C111.735,17.369 111.254,17.148 111.254,16.576 C111.254,16.056 111.67,15.718 112.541,15.718 C113.555,15.718 113.919,16.121 113.958,16.784 C113.971,17.187 115.297,17.148 115.284,16.576 C115.167,15.419 114.205,14.756 112.489,14.756 C110.812,14.756 109.876,15.601 109.876,16.719 C109.876,17.746 110.656,18.24 111.566,18.435 L112.983,18.747 C113.737,18.903 114.101,19.176 114.101,19.696 C114.101,20.229 113.685,20.593 112.684,20.593 C111.514,20.593 111.059,20.099 111.033,19.28 C111.02,18.864 109.577,19.007 109.603,19.553 C109.694,20.827 110.565,21.62 112.723,21.62 Z" id="Path"></path>
            <path d="M5.46,31.748 L5.46,24.182 L4.836,24.182 L4.836,31.644 C4.836,32.203 4.693,32.58 4.433,32.801 C4.095,33.061 3.588,33.061 2.964,32.775 L2.964,33.425 C3.185,33.49 3.51,33.607 3.835,33.607 C4.849,33.607 5.46,32.892 5.46,31.748 Z" id="Path"></path>
            <path d="M11.908,33.438 L11.908,26.938 L11.323,26.938 L11.323,30.305 C11.323,31.865 10.231,32.996 9.074,32.996 C8.255,32.996 7.644,32.437 7.631,31.15 L7.605,26.938 L7.02,26.938 L7.02,31.189 C7.02,32.853 7.826,33.568 9.048,33.568 C10.062,33.568 10.647,32.944 10.894,32.632 C11.063,32.424 11.323,32.502 11.323,32.762 L11.323,33.438 L11.908,33.438 Z" id="Path"></path>
            <polygon id="Path" points="13.468 24.182 13.468 33.438 14.053 33.438 14.053 24.182"></polygon>
            <path d="M20.579,26.938 L19.929,26.938 L18.499,30.799 C18.239,31.501 17.394,31.514 17.16,30.799 L15.886,26.938 L15.236,26.938 L17.485,33.568 L16.445,36.194 L17.017,36.194 L20.579,26.938 Z" id="Path"></path>
            <path d="M29.718,28.745 C30.784,28.355 31.252,27.51 31.252,26.561 C31.252,25.092 30.251,24.052 28.457,24.052 C26.325,24.052 25.532,25.404 25.532,26.938 C25.532,27.263 26.169,27.263 26.182,26.938 C26.169,25.404 27.053,24.637 28.366,24.637 C29.783,24.637 30.602,25.391 30.602,26.522 C30.602,27.627 29.874,28.446 28.262,28.446 L27.287,28.446 C26.962,28.446 26.962,29.031 27.287,29.044 L28.392,29.044 C29.874,29.044 30.602,29.902 30.602,30.981 C30.602,32.268 29.653,32.983 28.392,32.983 C26.702,32.983 25.922,31.891 25.922,30.708 C25.922,30.383 25.272,30.383 25.272,30.708 C25.272,31.982 26.065,33.568 28.353,33.568 C30.043,33.568 31.252,32.684 31.252,31.033 C31.252,30.019 30.823,29.135 29.718,28.745 Z" id="Path"></path>
            <path d="M34.411,26.873 C33.852,27.068 33.592,27.484 33.527,27.562 C33.371,27.757 33.046,27.744 33.046,27.471 L33.046,26.938 L32.461,26.938 L32.461,33.425 L33.046,33.425 L33.046,30.058 C33.046,28.927 33.54,27.718 34.749,27.471 C34.892,27.445 35.035,27.432 35.191,27.432 L35.191,26.756 C34.905,26.769 34.645,26.795 34.411,26.873 Z" id="Path"></path>
            <path d="M38.779,33.633 C39.741,33.633 40.378,33.191 40.586,32.892 C40.729,32.697 40.976,32.749 40.976,33.022 L40.976,33.438 L41.561,33.438 L41.561,24.338 L40.976,24.338 L40.976,27.237 C40.976,27.601 40.677,27.575 40.534,27.432 C40.222,27.12 39.676,26.834 38.805,26.834 C37.31,26.834 36.101,28.16 36.101,30.214 C36.101,32.333 37.284,33.633 38.779,33.633 Z M36.803,30.227 C36.803,28.355 37.791,27.341 38.883,27.341 C40.352,27.341 41.002,28.485 41.002,30.227 C41.002,31.956 40.092,33.139 38.883,33.139 C37.661,33.139 36.803,32.086 36.803,30.227 Z" id="Shape"></path>
            <polygon id="Path" points="42.991 29.46 42.991 30.006 53.391 30.006 53.391 29.46"></polygon>
            <path d="M57.616,24.052 C55.978,24.052 54.743,25.287 54.743,27.146 C54.743,28.797 55.874,29.915 57.395,29.915 C58.045,29.915 58.643,29.733 59.137,29.395 C59.475,29.174 59.878,29.356 59.774,29.941 C59.514,31.449 58.721,32.983 57.187,32.983 C55.757,32.983 55.393,32.151 55.341,31.267 L54.691,31.267 C54.769,32.567 55.536,33.607 57.135,33.607 C58.136,33.607 58.864,33.165 59.423,32.476 C60.294,31.41 60.645,29.72 60.632,27.952 C60.619,25.378 59.514,24.052 57.616,24.052 Z M55.393,27.003 C55.393,25.612 56.342,24.663 57.603,24.663 C58.747,24.663 59.605,25.326 59.891,26.717 C60.073,28.147 58.981,29.304 57.564,29.304 C56.212,29.304 55.393,28.498 55.393,27.003 Z" id="Shape"></path>
            <path d="M64.636,33.49 L64.636,32.84 C63.778,33.139 63.154,32.827 63.154,31.826 L63.154,27.445 L64.506,27.445 L64.506,26.938 L64.129,26.938 C63.531,26.938 63.154,26.561 63.154,25.963 L63.154,24.13 L63.115,24.13 L62.569,24.559 L62.569,25.963 C62.569,26.561 62.192,26.938 61.594,26.938 L61.607,26.938 L61.607,27.445 L61.594,27.445 C62.192,27.445 62.569,27.822 62.569,28.42 L62.569,32.008 C62.569,32.476 62.725,32.905 63.037,33.204 C63.388,33.542 63.934,33.698 64.636,33.49 Z" id="Path"></path>
            <path d="M68.666,26.808 C67.652,26.808 67.067,27.432 66.82,27.744 C66.651,27.952 66.391,27.874 66.391,27.614 L66.391,26.938 L66.391,24.182 L65.806,24.182 L65.806,33.438 L66.391,33.438 L66.391,30.071 C66.391,28.511 67.483,27.38 68.64,27.38 C69.459,27.38 70.07,27.939 70.083,29.226 L70.109,33.438 L70.694,33.438 L70.694,29.187 C70.694,27.523 69.888,26.808 68.666,26.808 Z" id="Path"></path>
            <path d="M72.111,34.27 L72.111,34.647 C72.345,34.647 72.566,34.608 72.774,34.53 C73.281,34.322 73.645,33.867 73.645,33.191 C73.645,32.658 73.411,32.333 72.982,32.333 C72.644,32.333 72.423,32.593 72.423,32.892 C72.423,33.256 72.696,33.464 73.138,33.464 C73.112,34.01 72.696,34.27 72.111,34.27 Z" id="Path"></path>
            <path d="M78.728,32.84 L78.728,33.438 L84.461,33.438 L84.461,32.84 L81.718,32.84 C81.016,32.84 80.457,32.008 81.25,31.215 C83.746,28.745 84.396,28.069 84.396,26.561 C84.396,25.482 83.655,24.052 81.627,24.052 C79.417,24.052 78.598,25.56 78.546,27.159 C78.546,27.484 79.196,27.536 79.196,27.211 C79.222,25.417 80.262,24.663 81.666,24.663 C83.057,24.663 83.746,25.638 83.746,26.639 C83.746,27.848 82.758,28.706 81.965,29.629 C81.185,30.539 79.638,31.787 78.728,32.84 Z" id="Path"></path>
            <path d="M89.115,33.555 C91.273,33.555 92.3,31.423 92.3,28.797 C92.3,26.184 91.273,24.052 89.115,24.052 C86.957,24.052 85.93,26.184 85.93,28.797 C85.93,31.423 86.957,33.555 89.115,33.555 Z M86.58,28.797 C86.58,26.639 87.373,24.65 89.115,24.65 C90.857,24.65 91.65,26.639 91.65,28.797 C91.65,30.968 90.857,32.957 89.115,32.957 C87.373,32.957 86.58,30.968 86.58,28.797 Z" id="Shape"></path>
            <path d="M93.652,32.84 L93.652,33.438 L99.385,33.438 L99.385,32.84 L96.642,32.84 C95.94,32.84 95.381,32.008 96.174,31.215 C98.67,28.745 99.32,28.069 99.32,26.561 C99.32,25.482 98.579,24.052 96.551,24.052 C94.341,24.052 93.522,25.56 93.47,27.159 C93.47,27.484 94.12,27.536 94.12,27.211 C94.146,25.417 95.186,24.663 96.59,24.663 C97.981,24.663 98.67,25.638 98.67,26.639 C98.67,27.848 97.682,28.706 96.889,29.629 C96.109,30.539 94.562,31.787 93.652,32.84 Z" id="Path"></path>
            <path d="M105.326,28.745 C106.392,28.355 106.86,27.51 106.86,26.561 C106.86,25.092 105.859,24.052 104.065,24.052 C101.933,24.052 101.14,25.404 101.14,26.938 C101.14,27.263 101.777,27.263 101.79,26.938 C101.777,25.404 102.661,24.637 103.974,24.637 C105.391,24.637 106.21,25.391 106.21,26.522 C106.21,27.627 105.482,28.446 103.87,28.446 L102.895,28.446 C102.57,28.446 102.57,29.031 102.895,29.044 L104,29.044 C105.482,29.044 106.21,29.902 106.21,30.981 C106.21,32.268 105.261,32.983 104,32.983 C102.31,32.983 101.53,31.891 101.53,30.708 C101.53,30.383 100.88,30.383 100.88,30.708 C100.88,31.982 101.673,33.568 103.961,33.568 C105.651,33.568 106.86,32.684 106.86,31.033 C106.86,30.019 106.431,29.135 105.326,28.745 Z" id="Path"></path>
        </g>
    </g>
</svg>